<svg xmlns="http://www.w3.org/2000/svg" width="14" height="14" fill="none"><path fill="#F2EDED" d="M2.625 6.563a.842.842 0 0 1-.618-.258.842.842 0 0 1-.257-.617V2.624c0-.24.086-.447.257-.618a.842.842 0 0 1 .618-.257h3.063c.24 0 .446.086.618.257a.843.843 0 0 1 .256.618v3.063c0 .24-.085.446-.256.617a.843.843 0 0 1-.619.258H2.626Zm0 5.687a.842.842 0 0 1-.618-.257.842.842 0 0 1-.257-.618V8.312c0-.24.086-.446.257-.618a.842.842 0 0 1 .618-.256h3.063c.24 0 .446.085.618.256a.843.843 0 0 1 .256.619v3.062c0 .24-.085.447-.256.618a.843.843 0 0 1-.619.257H2.626Zm5.688-5.688a.842.842 0 0 1-.618-.257.842.842 0 0 1-.258-.617V2.624c0-.24.086-.447.258-.618a.842.842 0 0 1 .617-.257h3.063c.24 0 .447.086.618.257a.843.843 0 0 1 .257.618v3.063c0 .24-.086.446-.257.617a.843.843 0 0 1-.618.258H8.312Zm0 5.688a.842.842 0 0 1-.618-.257.842.842 0 0 1-.258-.618V8.312c0-.24.086-.446.258-.618a.842.842 0 0 1 .617-.256h3.063c.24 0 .447.085.618.256a.843.843 0 0 1 .257.619v3.062c0 .24-.086.447-.257.618a.843.843 0 0 1-.618.257H8.312Z"/></svg>